<svg width="512" height="512" viewBox="0 0 512 512" fill="none" xmlns="http://www.w3.org/2000/svg">
<g clip-path="url(#clip0_5329_36252)">
<rect width="512" height="512" rx="120" fill="#0F0A0A"/>
<path d="M355.138 255.797H288.6C277.452 255.797 266.769 251.384 258.873 243.546L117.146 102.458C115.926 101.238 113.836 102.225 114.01 103.909L120.107 156.745C121.152 165.57 124.287 174.047 129.338 181.363L208.011 295.801L122.197 400.369C121.848 400.775 121.616 401.298 121.616 401.878V414.187C121.616 415.581 123.184 416.452 124.403 415.755C256.26 341.089 340.913 310.432 398.509 310.432C398.509 274.26 377.956 255.797 355.08 255.797H355.138Z" fill="#F9F9F9"/>
<path d="M222.468 184.381C224.093 190.826 227.403 196.69 232.106 201.335L266.594 235.707C272.4 241.513 280.297 244.765 288.541 244.765H328.487C329.997 244.765 330.868 243.023 329.939 241.803C291.444 193.322 250.627 147.048 214.513 96.7669C213.468 95.3154 211.204 96.0702 211.204 97.812V125.565C211.204 134.855 212.365 144.261 214.688 153.202L222.468 184.381Z" fill="#EA2B1F"/>
</g>
<defs>
<clipPath id="clip0_5329_36252">
<rect width="512" height="512" fill="white"/>
</clipPath>
</defs>
</svg>
