<svg xmlns="http://www.w3.org/2000/svg" fill="none" viewBox="0 0 138 48">
  <path d="M8.26 7.95v.032h5.197v4.909H8.26v11.97H2.94V12.89H0V7.98h2.939v-.307c0-4.97 3.849-6.844 7.293-6.844 1.41 0 3.126.307 4.224.83l-.936 4.202-.687-.184c-.717-.185-1.378-.277-1.971-.277-1.66 0-2.595.707-2.595 2.55H8.26zm7.294-6.721h5.315v23.637h-5.315V1.23zm25.311 6.752l-.031 16.885h-5.316v-1.812c-1.098 1.32-2.658 2.212-4.848 2.212-4.38 0-7.76-3.62-7.76-8.842 0-5.223 3.443-8.842 7.73-8.842 2.19 0 3.818.922 4.91 2.304V7.981h5.315zm-5.316 8.443c0-2.335-1.566-3.865-3.63-3.865-2.066 0-3.632 1.536-3.632 3.865s1.597 3.87 3.631 3.87 3.631-1.505 3.631-3.87zm6.881 3.096h5.385c.218.922.91 1.813 3.381 1.813 1.785 0 2.346-.46 2.346-1.167 0-.707-.53-.83-3.475-1.444-4.91-1.045-6.913-2.335-6.913-5.309 0-3.656 2.97-5.8 7.949-5.8 4.978 0 7.224 2.058 7.761 5.278H53.48c-.218-.799-.911-1.352-2.595-1.352-1.566 0-2.346.46-2.346 1.198 0 .584.499.645 2.564 1.075 5.134 1.106 7.917 2.12 7.917 5.616 0 3.896-3.475 5.831-7.886 5.831-4.66 0-8.073-2.18-8.697-5.738h-.006zm35.076-5.216v10.562H72.19v-9.394c0-1.844-.561-2.919-2.689-2.919-2.127 0-3.125 1.014-3.125 3.349v8.964h-5.322V1.23h5.322v8.657c1.254-1.505 2.844-2.304 4.972-2.304 3.818 0 6.164 2.612 6.164 6.722h-.006zm20.151 2.12c0 5.217-3.381 8.842-7.76 8.842-2.19 0-3.757-.891-4.88-2.212v1.812h-5.315V1.23h5.315v8.657c1.099-1.382 2.72-2.304 4.91-2.304 4.287 0 7.73 3.595 7.73 8.842zm-5.384 0c0-2.335-1.566-3.865-3.63-3.865-2.066 0-3.632 1.536-3.632 3.865s1.566 3.871 3.631 3.871c2.065 0 3.631-1.505 3.631-3.871zm26.378-8.75v5.37c-.343-.03-.561-.061-1.066-.061-2.502 0-4.91.737-4.91 4.571v7.306h-5.316V7.981h5.316v2.612c1.066-2.059 2.813-3.011 5.003-3.011.406 0 .718.03.973.092zm19.054-6.445v23.637h-5.322v-1.812c-1.123 1.32-2.689 2.212-4.879 2.212-4.379 0-7.761-3.62-7.761-8.842 0-5.223 3.444-8.842 7.73-8.842 2.19 0 3.818.922 4.91 2.304V1.23h5.322zm-5.322 15.195c0-2.335-1.566-3.865-3.631-3.865-2.065 0-3.631 1.536-3.631 3.865s1.597 3.871 3.631 3.871 3.631-1.505 3.631-3.871z" fill="#F9F9F9"/>
  <path d="M105.575 2.98c0 1.751-1.348 3.01-3.226 3.01s-3.225-1.259-3.225-3.01S100.534 0 102.349 0c1.816 0 3.226 1.26 3.226 2.98z" fill="#EA2B1F"/>
  <path d="M99.691 7.981h5.322v16.885h-5.322V7.981zM78.753 37.392c0 2.92-2.251 4.867-5.78 4.867h-1.946l-.548 2.799h-3.894l2.312-11.498h5.11c3.043 0 4.746 1.399 4.746 3.832zm-3.894.304c0-.79-.547-1.155-1.46-1.155h-1.277l-.548 2.677h1.582c1.095 0 1.703-.548 1.703-1.522zm9.187-1.216l-.243 1.338h4.867l-.548 2.799h-4.867l-.304 1.52h5.719l-.609 2.921h-9.49l2.311-11.437h9.309l-.609 2.92h-5.536v-.061zm14.297 2.494h3.346l-.973 4.928c-1.217.852-2.86 1.338-4.624 1.338-3.529 0-5.84-2.068-5.84-5.11 0-4.015 2.98-6.875 7.36-6.875 2.434 0 4.138.791 5.172 2.251l-2.738 2.13c-.73-.974-1.52-1.278-2.616-1.278-2.007 0-3.285 1.46-3.285 3.468 0 1.338.913 2.25 2.494 2.25.365 0 .73-.06 1.156-.182l.548-2.92zm12.167 4.016h-4.38l-1.156 2.007h-4.076l7.301-11.437h3.772l2.737 11.437h-3.833l-.365-2.008zm-.547-2.738l-.548-2.92-1.703 2.92h2.251zm4.988 3.893l1.461-2.859c1.277.73 2.555 1.034 3.832 1.034.974 0 1.521-.243 1.521-.669 0-1.217-5.475-.487-5.475-4.076 0-2.616 2.19-4.32 5.779-4.32 1.704 0 3.225.365 4.259.974l-1.399 2.798a6.155 6.155 0 00-3.164-.851c-1.156 0-1.703.365-1.703.79 0 1.278 5.475.487 5.475 4.016 0 2.555-2.251 4.258-5.779 4.258-1.947.061-3.712-.425-4.807-1.095zm16.609-7.665l-.243 1.338h4.867l-.548 2.799h-4.867l-.304 1.52h5.719l-.608 2.921h-9.491l2.312-11.437h9.308l-.609 2.92h-5.536v-.061z" fill="#F9F9F9"/>
  <path d="M90.495 31.37h-9.187l.609-3.042h9.186l-.608 3.041z" fill="#EA2B1F"/>
  <path d="M49.66 37.85c.811 0 1.447.318 1.906.953.459.632.688 1.498.688 2.6 0 1.136-.238 2.015-.713 2.638-.471.623-1.115.935-1.93.935-.808 0-1.44-.293-1.9-.88h-.129l-.314.757h-1.432v-9.566h1.875v2.226c0 .282-.024.735-.074 1.358h.074c.439-.68 1.088-1.02 1.949-1.02zm-.603 1.5c-.463 0-.8.144-1.014.431-.213.283-.324.752-.332 1.408v.203c0 .737.109 1.266.326 1.586.221.32.57.48 1.045.48.385 0 .69-.177.916-.53.23-.356.344-.872.344-1.549 0-.676-.114-1.182-.344-1.518-.23-.34-.543-.51-.94-.51zm3.763-1.37h2.053l1.297 3.867c.11.336.186.733.227 1.192h.037c.046-.422.134-.82.265-1.193l1.272-3.866h2.01l-2.907 7.752c-.267.717-.648 1.254-1.144 1.61-.492.357-1.067.535-1.727.535a4.39 4.39 0 01-.953-.104v-1.488c.225.053.471.08.738.08.332 0 .62-.102.867-.307.25-.201.444-.507.584-.916l.11-.339-2.73-6.823z" fill="#F9F9F9"/>
</svg>
